<svg xmlns="http://www.w3.org/2000/svg" width="673" height="734" viewBox="0 0 673 734">
    <g fill="none">
        <path fill="#69BF35" d="M656.297 371.198l-12.055 4.884h-1.339c0 1.799-1.2 3.256-2.679 3.256-32.136 10.245-64.8 17.86-97.775 22.793h-1.339c-2.61 3.8-6.94 5.115-10.715 3.257h-4.018l-44.2-1.629h-9.375l-38.842 8.14c.74 0 1.339.73 1.339 1.629 0 3.256-4.018 4.884-6.697 4.884h28.127c48.237-2.359 96.202-9.987 143.314-22.793 0-.899.6-1.628 1.34-1.628.739 0 1.339.729 1.339 1.628h-1.34l-41.52 19.537-44.2 16.28c-40.182 9.769-80.363 14.653-120.545 19.537-40.18 4.885-83.041 0-127.24-1.628-57.836-.512-115.571-5.953-172.78-16.28-21.431-1.628-40.182-14.653-40.182-29.306 0-14.652 5.357-13.024 14.733-16.28H64.29l-8.036-3.256c-6.583-2.571-12.557-7.04-17.412-13.025l-4.018-6.512c-8.045-11.103-15.22-23.094-21.43-35.818l2.679-4.884h-1.34c-3.755-3.186-6.571-7.75-8.036-13.024v-3.257c2.438-5.954 6.136-11.011 10.715-14.652 0-1.628 1.34-3.256 1.34-4.884-2.32-5.253-1.791-11.69 1.339-16.281-1.34-1.628-1.34-3.256 1.34-4.884h2.678l-2.679-3.256h-1.34l-9.375-3.256-5.357-9.769c-.836-4.27-1.285-8.637-1.34-13.024h1.34l-4.019-3.257H0v-3.256h6.697l4.018 6.513h1.34v3.256l-2.68-3.256 8.037 3.256h5.357l10.716 3.256c0 1.628 1.339 1.628 1.339 3.256s1.34-1.628 2.679 0H62.95c-1.34 0 0-1.628 0-1.628-12.02-11.025-25.056-20.313-38.842-27.677-2.679-1.628-5.358-3.256-5.358-4.884h5.358c30.447-1.85 60.803 5.418 88.399 21.164l22.77 6.513h-1.34l5.358 3.256h1.339l-4.018-3.256h-2.679l-48.218-26.05-24.108-14.652c-2.68 0-4.019-1.628-2.68-3.256h4.019c28.611 3.863 56.347 14.364 81.702 30.933 4.671.63 9.21 2.285 13.394 4.884h1.34l-4.019-3.256 9.376 6.513v-4.885c19.095 4.24 37.9 10.228 56.254 17.91h2.679c7.908-2.152 16.053-2.702 24.109-1.629l-8.037-3.256c6.63-1.623 13.46-1.623 20.091 0 17.915 1.99 35.046 9.87 49.557 22.793 37.503 1.628 75.005 3.256 112.508 1.628 2.679 0 4.018 1.628 4.018 3.256h-2.678c-27.132 3.521-54.44 4.61-81.703 3.256 22.595 4.859 45.403 8.12 68.309 9.769h18.751c29.463 1.888 58.997 1.344 88.4-1.629 25.182-2.627 50.224-6.976 75.005-13.024 36.163-6.512 68.308-16.28 104.471-19.537 5.358-1.628 9.376 0 10.715 3.256 1.34 3.256-2.678 6.513-8.036 6.513-74.083 22.18-150.06 33.656-226.355 34.189h-25.449c0 1.628-1.339 3.256-2.678 4.884h29.466c27.126-3.843 54.395-6.016 81.702-6.512 20.091 0 37.503 3.256 54.915 4.884l69.648-13.024h1.34c1.338 1.628 0 1.628-1.34 1.628-15.413 5.84-31.06 10.73-46.879 14.652 2.68 1.628 4.019 3.256 4.019 6.512 0 3.257-2.68 4.885-5.358 8.14h16.073c0 1.629-1.34 3.257-4.019 3.257l-46.878 3.256-54.915 6.512c2.68 1.628 5.358 4.885 5.358 6.513h9.376c52.236-9.769 104.471-19.537 158.047-24.421h1.339l-48.218 6.512h-2.678c-1.34 0-1.34-1.628 0-1.628l-89.739 14.652 83.042-6.512 8.036-3.256h-1.34c5.358 0 9.376 1.628 9.376 4.884 0 3.256-4.018 6.512-9.375 6.512l-42.86 6.513h61.61c0 1.798-1.198 3.256-2.678 3.256-39.286 12.295-79.076 22.077-119.205 29.305l-40.181 16.28h5.357c44.2-1.627 80.363-17.908 123.223-24.42h1.34c0 1.628 0 1.628-1.34 1.628l-60.272 14.652-48.218 13.025c32.146-3.256 62.951-11.396 95.097-16.28h5.357l12.054-4.885h1.34zm-553.165-100.94h1.34l2.679 4.884-4.019-4.884zm259.84 13.024c-16.228-1.114-32.354-3.836-48.217-8.14h12.054l36.163 8.14zM73.666 245.837c3.453 3.378 6.597 7.199 9.376 11.396h8.036l24.109 6.513c-1.34-1.628 1.34-1.628 1.34-1.628h4.017l-25.448-8.14-21.43-8.141zm-61.612-4.884h1.34c-1.34 1.628-1.34 1.628-1.34 0zm5.358 81.403l6.697-11.396-6.697 9.768v1.628z" transform="rotate(-102 345.808 354.376)"/>
        <path fill="#FFF" d="M646.86 481.719l-9.37 8.183h-1.339c-.084 1.261-.564 2.434-1.338 3.273-24.584 15.896-50.086 29.571-76.303 40.917h-1.338c-1.814 3.455-4.726 5.828-8.032 6.547h-4.016l-36.143 6.546-8.032 3.274-30.789 16.366c1.339 0 1.339 0 1.339 1.637s-1.339 3.273-5.355 3.273h10.71l13.386-3.273c39.887-12.015 78.514-29.587 115.123-52.373h1.338s1.339 1.636 0 1.636c-20.317 19.732-42.307 36.741-65.593 50.737-31.264 17.403-63.467 32.167-96.382 44.19-36.143 6.546-69.61 18.003-105.753 24.55-48.551 11.121-97.854 16.601-147.25 16.366-18.741 1.637-36.143-6.546-37.482-18.003-1.339-11.457 2.677-13.093 10.71-18.003h-12.049c-5.745-1.399-11.205-4.18-16.063-8.184l-4.016-4.91c-6.693-9.82-17.402-18.003-21.418-27.823v-4.91c-3.733-2.49-6.59-6.566-8.032-11.456v-3.274c1.141-5.54 3.449-10.618 6.693-14.73-.124-1.792.36-3.567 1.339-4.91-2.895-4.099-3.427-9.954-1.339-14.73-.576-.621-.906-1.515-.906-2.455 0-.94.33-1.833.906-2.455h2.677l-1.338-3.273h-10.71l-4.015-4.91c-4.016-8.183-4.016-8.183-2.678-11.457-2.677-1.636-2.677-1.636-2.677-3.273h-1.339c0-3.273 0-3.273-1.338-3.273h5.354l4.016 4.91h4.016l-2.677-3.274h10.709l9.37 3.274c.74 0 1.34.732 1.34 1.636 0-1.636 1.338-1.636 2.676-1.636h5.355l9.37-4.91h2.678c-10.995-4.044-22.168-7.323-33.466-9.82-2.678 1.636-4.016 0-4.016-1.637l2.677-3.273c25.183-6.83 51.331-6.269 76.303 1.636l18.74 3.274h4.016l-4.016-3.274h-1.338c-14.454-1.121-28.792-3.86-42.837-8.183L135.5 462.08c-1.479 0-2.677-1.466-2.677-3.274h4.016c23.606-2.295 47.34 1.611 69.609 11.457 5.355 0 9.37 0 12.048 3.273h1.338l-2.677-3.273 8.032 3.273v-3.273c16.11-.592 32.233.503 48.191 3.273h1.339c6.302-3.688 13.111-5.908 20.08-6.546h-6.694c4.972-3.135 10.47-4.815 16.064-4.91 15.2-2.322 30.616 1.105 44.175 9.82 30.702-4.563 61.114-11.672 91.027-21.277 1.339 0 4.016 0 4.016 1.637 0 1.636 0 1.636-2.677 3.273-21.494 8.275-43.404 14.836-65.593 19.64l57.561-6.547h14.725c24.41-9.628 48.137-21.67 70.948-36.006l58.9-26.187c28.112-14.73 53.546-29.46 81.657-40.916 4.016-1.637 8.032-1.637 9.37 1.636 1.34 3.274-1.338 4.91-5.354 6.547-56.65 35.874-116.981 62.296-179.377 78.56l-20.08 4.91c0 1.636 0 3.273-1.339 3.273l24.096-3.273c21.418-8.184 41.498-18.004 65.593-24.55l45.514-6.547 54.884-26.186h1.339l-37.482 22.913c2.677 0 4.016 1.637 5.354 4.91-.53 2.884-1.434 5.647-2.677 8.183l8.032-3.273h4.016c0 .868-.282 1.7-.784 2.314-.502.614-1.183.96-1.893.96l-37.482 13.092-44.175 21.277 6.693 4.91h6.693c41.069-22.328 83.07-41.995 125.832-58.92h1.339c0 1.637 0 1.637-1.339 1.637l-38.82 16.366h-1.34l-70.947 32.734 66.932-22.914 6.693-4.91h1.339c1.339 0 0 1.637 0 1.637h-1.339c4.016-1.637 8.032 0 8.032 1.637 0 1.636-2.677 6.546-6.693 8.183l-34.805 14.73h-4.016l-2.677 3.273 54.884-16.366h2.678c1.338 1.636 0 3.273-1.34 3.273-30.788 16.367-62.915 31.097-95.043 44.19l-30.788 22.913h5.354c36.144-9.82 62.916-32.733 96.382-49.1h1.339l-46.852 27.824-38.82 21.276c26.772-9.82 50.867-24.55 76.302-36.006 1.338-1.637 2.677-1.637 2.677 0 0 1.636 0-1.637 1.338-1.637l9.37-6.547c0-.904.6-1.636 1.34-1.636 1.338 4.91 0 4.91 0 4.91zm-468.523 26.186h1.338l2.678 4.91-4.016-4.91zm214.182-42.553c-13.264 2.722-26.717 3.819-40.16 3.273h40.16v-3.273zm-240.955 24.55l8.032 8.183h28.111c-1.339-1.636 0-1.636 1.339-1.636h2.677l-21.418-3.274c-6.333-.152-12.627-1.251-18.741-3.273zm-49.53 4.91h1.339-1.339zm10.71 75.287l5.354-11.457-5.355 11.457z" transform="rotate(-102 345.808 354.376)"/>
        <path fill="#69BFEA" d="M637.122 213.517l-12.058 4.9h-1.34c0 1.632 0 3.265-1.34 3.265-30.32 13.461-61.775 22.772-93.784 27.762 0 1.633 0 1.633-1.34 3.266-2.612 3.81-6.943 5.13-10.718 3.266h-4.02l-41.533-3.266h-10.718l-36.174 8.165v4.899c0 3.266-4.02 4.899-6.7 4.899h9.38c.355 0 .695.172.947.478.251.306.392.722.392 1.155h17.417c46.447-2.067 92.436-11.96 136.658-29.395h4.02l-40.194 24.496c-13.641 8.476-28.023 15.05-42.873 19.596-38.788 11.48-78.183 19.664-117.9 24.495l-124.6-4.899c-56.562-4.24-112.65-15.178-167.473-32.66-21.437-4.9-37.514-21.23-36.175-35.927 1.34-14.697 6.7-16.33 16.078-17.963h-5.36l-6.698-4.899c-6.07-3.655-11.176-9.313-14.738-16.33l-4.02-8.165c-4.019-13.064-13.397-27.761-16.077-40.826l2.68-4.899h-1.34c-3.43-3.738-5.38-9.089-5.359-14.697l2.68-4.899c1.573-6.617 5.51-12.017 10.718-14.697.365-2.444 1.295-4.71 2.68-6.532-1.857-6.136-.83-13.016 2.68-17.963-1.34-1.633 0-4.9 2.679-4.9h2.68l-2.68-3.265-2.68-3.266-8.039-4.9-4.019-6.532c-1.34-11.43-1.34-11.43 0-14.697h1.34l-2.68-3.266c-.74 0-1.34-.73-1.34-1.633v-8.165c2.68-1.633 2.68-1.633 2.68-3.266h5.36l2.679 8.165h2.68v-4.899l6.698 4.9h4.02l10.718 6.531v3.266c1.34-1.633 2.68-1.633 2.68 0h17.417l4.019 3.266h-1.34c0-1.633 1.34-3.266 0-3.266-10.746-9.982-21.928-19.25-33.494-27.761-2.68 0-4.02-1.633-4.02-3.266s2.68-3.266 5.36-3.266c28.555.188 56.462 10.392 80.386 29.394l20.097 8.165h-1.34l5.36 3.266-2.68-4.899-2.68-3.266c-14.806-7.391-29.137-16.125-42.873-26.128L87.811 6.124c-2.68-1.633-2.68-3.266-2.68-4.9 0-1.632 2.68-1.632 5.36 0 25.89 5.02 50.317 17.941 71.008 37.56 5.037 1.022 9.705 3.867 13.398 8.165l-2.68-4.899c4.02 1.633 5.36 4.9 8.04 8.165v-4.899c17.538 4.864 34.604 11.98 50.911 21.23h1.34c7.903-2.22 16.06-2.772 24.116-1.634l-8.039-3.266h18.757c16.787 2.157 32.427 11.4 44.213 26.129 34.234 4.858 68.723 6.496 103.163 4.899 2.68 0 4.02 1.633 4.02 3.266h-2.68c-12.374 2.71-24.95 3.806-37.514 3.266H339.69c21.226 5.404 42.702 9.222 64.31 11.431h57.61c13.898.487 27.803-.607 41.534-3.266l34.834-6.532 33.495-8.165 48.232-14.697 46.892-6.532c5.36-1.633 9.379 0 10.719 3.266-.392 4.622-3.04 8.495-6.7 9.798C603.629 107.37 535.3 128.6 461.612 125.334h-24.116c.124 1.788-.36 3.56-1.34 4.9h26.795l37.514-4.9 38.854-3.266c17.417 0 34.834 3.266 50.912 4.9l64.31-16.331h1.34c1.339 1.633 0 1.633 0 3.266l-44.214 16.33c2.246 1.816 3.595 4.881 3.595 8.165 0 3.284-1.35 6.35-3.595 8.165h10.719l4.019 3.266c0 1.633-1.34 3.266-4.02 3.266l-42.872 4.9-52.252 8.165c2.472 1.932 4.355 4.8 5.36 8.165h8.038l148.716-32.66h1.34l-45.553 8.164c0 1.633-1.34 1.633-2.68 0l-83.066 22.863 77.707-8.165 8.039-4.9h1.34c1.34 1.634 0 1.634 0 1.634h-2.68c5.36 0 9.379 1.633 9.379 6.532s-4.02 6.532-9.379 8.165l-40.193 6.532h-9.379l64.31-3.266h4.019c0 1.804-1.2 3.266-2.68 3.266-37.3 13.664-75.358 24.033-113.881 31.027-11.878 8.188-24.458 14.76-37.514 19.596h5.36c42.872-1.633 77.707-21.229 116.56-31.027h1.34l-56.27 17.963-46.893 14.697c30.815-3.266 60.29-13.064 91.105-19.596h4.02l12.057-6.532h1.34c1.34 3.266 0 3.266 0 4.9zM117.287 87.775h2.68v6.532l-2.68-6.532zm242.5 24.495c-14.945-1.68-29.74-4.958-44.213-9.798h10.719l33.494 9.798zM93.171 58.38l8.038 13.065h8.039l21.436 9.798c-1.34-3.266 0-1.633 1.34-1.633h2.68l-21.437-9.798L93.171 58.38zM35.56 50.215h1.34c0 1.633-1.34 0-1.34 0zm9.378 6.532c0-.902-.6-1.633-1.34-1.633l1.34 1.633zm-14.737 84.917l8.038-13.064-8.038 11.431v1.633z" transform="rotate(-102 345.808 354.376)"/>
    </g>
</svg>
