<?xml version="1.0" encoding="UTF-8"?>
<svg data-name="Layer 1" viewBox="0 0 2003 1113.5" xmlns="http://www.w3.org/2000/svg">
<defs>
<style>.cls-1,.cls-2{fill:none;stroke:#000;}.cls-2{stroke-width:2px;}</style>
</defs>
<title>afdb_pattern-2</title>
<path class="cls-1" d="M787.1,1105.3c-3.7-25.9-9.6-49.4-26.5-66.1-11-10.9-25.6-17.7-41.1-25s-30.5-14.3-43.7-25.8c-30-26.2-37.9-62-45.5-96.7-4-18.1-7.7-35.2-14.4-50.7s-16.4-26.3-27-38.6c-17.8-20.6-37.9-44.1-36.3-82.7,1.8-43.9,32-84.9,73.2-99.8,20.3-7.4,41.5-8.4,62.1-9.5,22.8-1.2,44.4-2.3,62.9-11.6,24.9-12.5,41.2-38.8,57-64.2l6.5-10.3c18-28.4,41.4-44,64-59.1,17.2-11.5,33.4-22.3,47.5-38.5,21.5-24.8,45.6-64.8,37.8-114.9l-1.2-7.4c-2.5-14.1-5.3-30.2.9-45.7,12-30.3,30.6-36.7,44-36.7,39.6,0,78.9,55,90,71.9,13.3,20.2,22.6,39.8,24.9,52.4,9.3,51.9-2.6,104.4-15.4,148.8-4.2,14.6-7.8,31.2-11.5,48.8-12.7,59.3-27.1,126.5-75.3,160.8-17.7,12.6-38,18.8-57.6,24.8-16.4,5.1-31.9,9.8-45.5,18-34.6,20.8-52.8,66-42.3,105,.9,3.2,1.9,6.3,3,9.7,3.2,9.8,6.7,20.9,5.9,32.9-1.2,19.1-12.7,33.8-22.8,46.7-5.9,7.6-11.6,14.8-15.1,22.4-11.9,25.6.7,56.8,19.4,74.4s45.1,28.4,81.7,34c6.3,1,12.8,1.8,19.2,2.6,17.3,2.1,35.2,4.4,52.6,10.1,14.3,4.7,26.8,11.5,36.8,20"/>
<path class="cls-1" d="m797.9 1105.3c-3.9-28.5-10.3-55.6-30.2-75.4-23.7-23.5-60.1-29.4-85.2-51.3-41.7-36.3-36.4-95.9-56.7-142.9-18.6-43-64.5-61.4-62.2-116 1.6-38.9 28.5-75.7 65.2-88.9 40.3-14.6 87.7-2.3 126-21.6 31.4-15.8 49.3-49 68.2-78.8 29.5-46.7 75.8-56.5 110.2-96 30.4-35 47.8-77.8 40.6-124.6-2.5-15.6-6.9-32-1.1-46.7 24.9-62.9 80.7-11.2 112.6 37.3 12.4 18.8 21.1 37 23.1 47.9 8.5 47.7-1.7 96.7-15.1 143.2-18.2 63.3-24.1 161.7-82.1 202.9-30.1 21.5-70.4 23.2-102.1 42.3-39.1 23.5-59.5 74.3-47.6 118.4 3.5 12.8 9.4 25.4 8.5 38.6-1.7 25.1-26.2 41.9-36.8 64.7-13.6 29.4-1.5 66 22.1 88.2s56 32.2 87.9 37.1c23.4 3.6 47.3 4.8 69.8 12.2"/>
<path class="cls-1" d="m1013 1095.9a105.2 105.2 0 0 1 20.8 9.4"/>
<path class="cls-2" d="M824,1105.3c-4.3-32.2-11.8-66.1-37.7-91.7-15.4-15.3-34.4-24.2-51.2-32-13.4-6.3-26-12.2-35.4-20.3-21.1-18.4-27.1-45.7-34.1-77.3-4.1-19-8.5-38.6-16.6-57.3s-21.4-34.6-32.7-47.8c-18.4-21.3-28.7-34.4-27.7-57.7,1.2-29.1,22-57.5,49.5-67.4,15.3-5.5,33-6.4,51.8-7.4,25.6-1.3,52.1-2.6,77.4-15.3,34-17.1,54-49.2,71.6-77.5,2.1-3.4,4.3-6.7,6.4-10,13.9-21.9,32.3-34.2,53.7-48.5,18.4-12.2,37.5-25,54.8-44.8,38.1-43.7,54.2-93.6,46.3-144.1-.4-2.7-.8-5.4-1.3-8.1-1.8-10.3-3.5-20.1-1.1-26.2,1.3-3.2,5.8-13.9,10.5-13.9,11.5,0,37,20.8,60,55.6,12.6,19.2,18.6,33.9,19.5,39,8.1,44.6-2.8,92-14.5,132.5-4.6,15.7-8.3,32.9-12.2,51.2-11.3,52.9-24.2,112.8-61,139-13,9.2-29.7,14.3-47.4,19.7s-36.2,11.1-53.6,21.5c-30.2,18.2-51.7,49-59.6,83.2-3.9,17.1-5.1,36.3-1.1,53.6,4.8,20.4,7.1,43.6-1.4,64.2-10,24.4-30.5,36.9-31.5,65.5-1,30.8,13.2,61,35.4,81.9s48.4,32.8,84.2,40.4"/>
<path class="cls-1" d="M905.9,687c-12.5,0-23.9-3-35.4-6.4l-27.6-8.1c-5-1.5-16.7-4.9-23.7-16.4s-5.8-28.9,5.2-43.2,25.6-25,39.2-34.8c11.2-8.1,21.8-15.7,29-24.9,5.3-6.7,9.6-15.2,14.1-24.2s9.2-18.6,15.7-27.8C935.2,483,957,472,980.6,472a71.5,71.5,0,0,1,22.7,3.7c16.5,5.6,28.6,17.2,33.2,31.9,3.4,10.9,4.2,28.2-11.3,48.8-5.5,7.3-11,13.8-16.3,20.2-11.4,13.5-21.1,25.1-28,40.2l-3.2,7.4c-9.7,22.1-21.7,49.7-51.2,59.6a65.8,65.8,0,0,1-20.6,3.2Z"/>
<path class="cls-1" d="m995.6 497.4c-16.8-5.7-40.8-1.5-53.5 16.5s-17.9 36.8-30.6 52.8c-18.7 23.6-49.6 35.4-68.1 59.2-3.6 4.6-6.7 10.9-3.7 15.9 2.1 3.3 6.2 4.6 9.9 5.7l27.6 8.1c13.6 4 28.2 7.9 41.7 3.5 22-7.4 30.6-32.8 40.2-53.9 11.8-25.9 30.3-42.5 47-64.6s6.6-37.5-10.5-43.2z"/>
<path class="cls-1" d="m906.6 651.9c-15.3 1.1-32.5-6.3-47.1-9.5-2.7-0.6-5.8-1.5-6.7-4.1s1.8-6.3 4.5-8.4c21.5-16.8 47.4-32 64.4-53.6 7.6-9.7 12.9-20.3 18-30.6 4.2-8.4 8.1-16.2 13-23.2 8.6-12.3 46.7-24.7 49.7-1.2 1.2 9.3-6.3 17.1-12.7 23.9a236.5 236.5 0 0 0-44.8 66.2c-4.8 10.6-9.1 21.9-17 30.5a30.5 30.5 0 0 1-21.3 10z"/>
<path class="cls-1" d="m808.2 788.4c-17.8-38.1-167.1-156.9-172.6-60.5-1.5 25.2 19.2 46.1 25.5 70.6 4 16 1.8 32.9 3.8 49.3 3.4 26.7 22.1 62.7 38.6 83.9 7.6 9.8 19.9 16.9 32.1 15 31.2-4.9 23.9-39 33.7-59.5 11-23.1 39.5-36.3 45.3-62.3 2.7-12.3-1.1-25.1-6.4-36.5z"/>
<path class="cls-1" d="M731.6,935c-6.2,0-13.5-4.1-18.6-10.6-15.2-19.4-33-53.3-36.1-77.7a161.7,161.7,0,0,1-1-18.8c-.2-10.3-.4-21-3.2-31.8s-8.1-21.1-13.1-30.7c-6.6-12.5-12.7-24.2-12-36C649,704,661.4,704,667.3,704c40,0,118.1,64.7,130,90.1,5.5,11.7,7.3,21.1,5.6,28.6-2.5,11.3-11.6,20.4-21.1,29.9s-17.7,17.8-23.4,29.7c-3.7,7.7-5.3,16.3-6.8,24.5-3.5,18.9-5.9,26.2-17.8,28.1Z"/>
<path class="cls-1" d="M726.2,901.9c-10.5,1.8-21-17.8-23.2-25.4-3.7-13.1-2.1-27-2.2-40.6a175.4,175.4,0,0,0-22.9-86.3c-2.1-3.8-4.5-7.6-5.2-11.9s.6-9.3,4.4-11.5c5.6-3.3,12.5,1,17.5,5.1l56.3,46.2c10,8.2,20.8,17.7,22.4,30.7s-5.6,23.3-13.9,32-18.2,16.2-24.7,26.2c-3.7,5.6-6.2,12.4-6.2,19.1s5.8,14.6-1.9,16.3Z"/>
<path class="cls-1" d="M726.4,841a1.5,1.5,0,0,1-1.3-1c-.4-.8.1-1.7.5-2.5,2.3-5-.1-12.4-1.3-17.5s-2.8-11.4-4.3-17.1a104.4,104.4,0,0,1-3.2-14.5c-.3-2.2-.9-6.2,1.3-7.7l.4-.3c5-2.1,10.8,5.1,13.5,8.2s3.2,4.4,4.9,6.5a73.5,73.5,0,0,0,8.6,8.1c2.3,1.9,5.6,4.7,6,7.9.2,1.5-1.2,6-7.5,12.7-2.3,2.4-4.9,4.8-7.6,7.4s-4.1,6.2-7.1,8.6a3.8,3.8,0,0,1-2.1,1.2Z"/>
<path class="cls-1" d="M1120.9,1105.3c-1.7-5.9-3.6-12-5.6-17.7-10.4-30.6-25-50.4-43.5-58.8-8.2-3.7-17.7-5.5-29-5.5s-24.8,2-38.2,4c-6.8,1.1-13.9,2.2-20.9,3a131.3,131.3,0,0,1-15.4.9c-40.4,0-69.6-16.6-78.3-44.4-7.2-23,2.7-46.7,10.8-62.4l6.3-11.8c9.7-18,18.8-34.9,19.3-52.9a115.4,115.4,0,0,0-1-16.2c-.9-8.7-1.8-17.7-.4-27.3,5.9-38.8,47.2-60.9,85.6-65.5l13.8-1.7c20.1-2.6,39.1-5,56.4-5,49.7,0,79.4,21,99.2,70,5,12.4,9,25.1,12.9,37.3,5.1,16.4,10,31.9,17,46.6,18.2,38.3,52.5,72.9,99,100.2l10.9,6.3c22.6,12.8,46,26.1,60.4,49.5,9,14.7,11.6,34.3,7.3,51.4"/>
<path class="cls-1" d="m1210.2 1107.2a9.1 9.1 0 0 1-2.9-1.9"/>
<path class="cls-1" d="M1210.9,1107.5l-.7-.3"/>
<path class="cls-1" d="m1223.4 1105.3c-4.2 2-8.5 3.6-12.5 2.2"/>
<path class="cls-1" d="M1132.3,1105.3c-2.1-7-4.2-14-6.6-20.9-9.1-26.8-24.1-54.1-49.9-65.9-29.1-13.2-62.7-3.2-94.5.5s-71.3-4.7-80.8-35.2c-5.6-17.8,1.5-37,10-53.5,11.6-22.5,26.2-44.8,27-70,.4-14.1-3.7-28.2-1.6-42.1,5-33.2,41.9-51.6,75.2-55.6,73.3-8.9,125.7-21,156.7,56.1,11.2,27.8,17.4,57.5,30.2,84.6,21.5,45.3,60.6,80.4,103.8,105.8,24.6,14.4,52.2,27.4,67.1,51.8,7.9,12.8,9.6,30.1,5.3,44.4"/>
<path class="cls-1" d="m1210.2 1107.2a9.1 9.1 0 0 1-2.9-1.9"/>
<path class="cls-1" d="M1210.9,1107.5l-.7-.3"/>
<path class="cls-1" d="m1223.4 1105.3c-4.2 2-8.5 3.6-12.5 2.2"/>
<path class="cls-1" d="M1156.9,1099.6c-2.3-7.7-4.6-15.7-7.4-23.6-13.8-40.4-34.9-67.3-62.7-79.9-13-5.9-27.4-8.8-44.1-8.8-15,0-29.6,2.3-43.7,4.5-6.8,1-13.2,2-19.5,2.8a105.5,105.5,0,0,1-11.3.6c-17.4,0-39.4-5-43.8-19.1-2.5-7.9.2-19.2,8.5-35.3,1.9-3.7,3.9-7.4,5.9-11.1,10.8-19.9,22.9-42.5,23.7-69a150.9,150.9,0,0,0-1.2-20.9c-.7-6.8-1.4-13.2-.6-18.2,2.1-14.5,21.5-31.2,54.2-35.2l14-1.7c19.8-2.5,36.8-4.7,51.9-4.7,30.2,0,49.6,7.6,65.7,47.5,4.5,11,8.1,22.5,11.9,34.7,5.4,16.8,10.9,34.1,18.9,51.1,21.3,44.8,60.5,84.9,113.3,115.9l11.3,6.5c19.6,11.1,38.1,21.5,47.6,37,4.6,7.5,5.3,19.3,1.8,27.5"/>
<path class="cls-1" d="M1158.6,1105.3c-.5-1.9-1.1-3.8-1.7-5.7"/>
<path class="cls-1" d="m1210.2 1107.2a9.1 9.1 0 0 1-2.9-1.9"/>
<path class="cls-1" d="M1210.9,1107.5l-.7-.3"/>
<path class="cls-1" d="m1223.4 1105.3c-4.2 2-8.5 3.6-12.5 2.2"/>
<path class="cls-1" d="m1351.3 1100.2a13.1 13.1 0 0 1-3.5 5.1"/>
<path class="cls-1" d="m1084.8 830.1c-17.8-21.5-45-33.1-72.5-15.4-13.3 8.6-14 27.4-21.5 41.3s-25.8 25.4-30.2 42.3 6.8 35.5 20.5 47.4c9.2 8 15.2 7.7 25.8 4.5a73.2 73.2 0 0 1 30.7-3.4c25.5 2 50.6 9.5 76.4 8.1 9.4-0.6 19.9-3.1 24.4-11.3s0.1-20.1-4.7-29.3c-15-28.5-28.2-59.2-48.9-84.2z"/>
<path class="cls-1" d="M1106,944.9c-22.9-.8-45.1-6.3-68.1-8.1a81.3,81.3,0,0,0-8.4-.4c-17.6,0-35.8,11.5-50-5.6-6.3-7.6-8.4-18.3-6.1-28,3.9-16.3,20.1-24.8,27.8-39.1a100.8,100.8,0,0,0,6.9-17.5c2.9-8.6,5.3-16.1,10.4-19.4,6.9-4.5,13.9-6.8,20.8-6.8,16.6,0,29.2,12.4,35.2,19.7,15.2,18.5,26.5,41.2,37.4,63.1,3.8,7.4,7.2,14.4,11.5,21.6,3.1,5.3,4.8,12.7.5,17.1s-7.9,3.5-12.3,3.5Z"/>
<path class="cls-1" d="M1091.8,917.2a9.4,9.4,0,0,1-6.2,2.8c-3.2.2-6.4-.8-9.5-1.7a152.2,152.2,0,0,0-41.9-5.6,132.8,132.8,0,0,0-21.8,1.9c-4.4.8-11.8,4.5-14.4-1.6s6-13.1,9.5-16.7c5.4-5.7,11.5-12.1,16.3-20.9s4.9-14.9,8.1-22.3a13,13,0,0,1,7.3-7.4c4.5-1.7,9.6.1,13.2,3.2,7.4,6.4,13.8,17.4,19.1,25.5,6.6,10,12.6,20.4,19,30.6,1.8,3.1,3.8,6.6,2.7,10A7.4,7.4,0,0,1,1091.8,917.2Z"/>
<path class="cls-1" d="M1059.3,895.1a3.6,3.6,0,0,1-2.1,1.7,10.8,10.8,0,0,1-3.1.2,133,133,0,0,1-15.6-1.4,7.7,7.7,0,0,1-3.7-1.2,3.7,3.7,0,0,1-1.2-3.7c.6-2,3-2.6,4-4.4s1.6-4.7,2.3-7.2,3.5-10,6.8-5.9a9,9,0,0,1,1.3,3.2,33.1,33.1,0,0,0,9.1,14.1c1.2,1.1,2.7,2.5,2.3,4.2A.6.6,0,0,1,1059.3,895.1Z"/>
<path class="cls-1" d="M1178.3,1105.3c-4.6-6.6-9.4-13.2-12-20.2a111.5,111.5,0,0,1-6.2-50.2c2.6-24.8,10.8-50.6,39.9-35.3,14.9,7.9,30.9,16.3,47,21.6,23.6,7.8,44.4,26.2,43.5,48.7-.6,13.4-6.7,25.7-15.9,35.4"/>
<path class="cls-1" d="m1210.2 1107.2a9.1 9.1 0 0 1-2.9-1.9"/>
<path class="cls-1" d="M1210.9,1107.5l-.7-.3"/>
<path class="cls-1" d="m1223.4 1105.3c-4.2 2-8.5 3.6-12.5 2.2"/>
<path class="cls-1" d="M1207.3,1105.3c-4.4-4.2-6.6-12.3-9.8-16.9s-6.5-9.2-7.7-12.5c-5.4-14.6-9-33.8-3.6-48.9,4.4-12.3,18.5,1.6,26.1,5.2a240.1,240.1,0,0,0,28.3,11.6c15.4,5.1,27.3,15.8,26.9,24.4-.6,12.5-12.2,25.7-27,30.7"/>
<path class="cls-1" d="m1210.2 1107.2a9.1 9.1 0 0 1-2.9-1.9"/>
<path class="cls-1" d="M1210.9,1107.5l-.7-.3"/>
<path class="cls-1" d="m1223.4 1105.3c-4.2 2-8.5 3.6-12.5 2.2"/>
<path class="cls-1" d="M1232.3,1101.4c-2.7.7-5.7,2.4-8.9,3.9"/>
<path class="cls-1" d="M1240.5,1098.9c-2.4.9-5.2,1.6-8.2,2.5"/>
<path class="cls-1" d="M1215,1093.8c-5.5-1.3-5.7-7.9-8.5-11.9s-5.6-7.9-6.3-9.7a83.6,83.6,0,0,1-5.1-20.1c-.3-2.7-1.7-11,1.3-12.8s16.5,7.1,19.7,8.4l27.3,11.1c4.3,1.8,9,4,10.6,8.2s0,7.4-2.2,10.2-5.5,4.8-8.7,6.6a142.3,142.3,0,0,1-18.6,8.6c-3,1.1-6.1,2.1-9.2,1.5Z"/>
<path class="cls-1" d="M1453.7,1105.3c-.8-23.5-12.6-48.7-39.1-70.6s-60.3-39.1-83.7-65.8c-25-28.5-37.6-67.2-66.2-92.1-14.1-12.3-32.7-22.5-36.6-40.7s12.6-38.5,31.8-43,39.5,2.6,56.5,12.5c46.4,27.2,79.7,76.9,131.4,91.7,5.6,1.5,11.6,2.7,17.2,1.1,19.6-5.7,16-34.3,24.4-52.9,12.8-28,46.1-26.9,71.1-34.4,33.1-9.8,39.3-29.1,65-52.8,41.5-38.3,117.5-16,141.3,35.3s.9,115.7-43.2,151c-16.4,13-35.7,23.4-47.1,40.9-23,35.5-3.2,83.6,24.9,115.3"/>
<path class="cls-1" d="m1701.4 1100.8 4.1 4.5"/>
<path class="cls-1" d="M1476.3,1105.3c-.4-32.5-17.2-64.8-47.7-90.1-11.1-9.2-22.7-17.3-34-25.1-17.6-12.1-34.2-23.6-46.8-38-9.4-10.7-17.1-23.6-25.2-37.3-11.9-19.9-24.1-40.5-43.2-57.1-3.6-3.2-7.3-6-10.8-8.8-8.3-6.5-16.8-13.2-18-18.8s5.6-12.7,13.7-14.6l3.1-.5c9.8-1.2,22.2,2.4,35.7,10.4,16.5,9.6,31.6,22.9,47.6,37,26,22.9,52.9,46.6,89.2,57,6,1.7,14.2,3.5,23.3,2.5a42.7,42.7,0,0,0,7.1-1.5c27-7.8,32.3-34.4,35.5-50.3,1.2-5.9,2.4-11.9,4.1-15.7,4.2-9.3,14-12.1,35.2-16.4,6.8-1.4,13.8-2.8,20.7-4.9,29.5-8.8,43.2-24.4,56.5-39.5a251,251,0,0,1,17.8-18.6c7.6-7,17.1-11.2,28.3-12.5,29.8-3.5,62.6,14.1,74.7,40.1,8.7,18.8,9.7,41.6,2.7,64.4a119.4,119.4,0,0,1-39.1,57.8c-3.9,3.2-8.3,6.3-12.8,9.6-13.4,9.6-28.6,20.5-39.3,37.1-18.4,28.5-23.7,79.7,18.3,133.8"/>
<path class="cls-1" d="m1501.8 1105.3c-4.1-27.9-16.2-55.1-33-77.9-22-29.7-64.2-51.7-93.7-73.9-3.8-2.8-7.7-5.9-9.6-10.2s-1-10.3 3.2-12.5c5.7-2.9 11.8 2.5 16.4 6.9 29.2 27.8 78.4 26.2 112 6.9 20-11.6 27.2-30.2 42-46.4 7.5-8.4 17-14.7 26.3-21l75.1-50.3c16.4-11 35.9-22.4 54.6-16s26.6 26.7 24.1 44.9-14.1 34-27.5 46.8-28.7 23.2-41.7 36.3a145.4 145.4 0 0 0-27.5 166.4"/>
<path class="cls-1" d="M1559.7,1105.3a195,195,0,0,0-7.9-35.6,242.3,242.3,0,0,0-19.2-42.9c-7.1-12.5-50.7-33.5-16.4-49.2,6.6-3,14.1-3.3,21.1-5.1,21.2-5.5,31.1-29.3,44.1-44.3s30.3-28.1,47.5-39.4c14.9-9.9,40.2-18.8,51.4-32.1,3.3-4.1,6.2-8.7,10.6-11.5s11.2-3.2,14.4,1,1.9,7.3.2,10.6-4.6,5.9-7.4,8.4c-26.1,23.2-55.5,44.7-74.9,74.2a179.7,179.7,0,0,0-17.6,165.9"/>
<path class="cls-1" d="m1566.8 1047.4c-10.8 5.1-9.4-21.2-15.3-31.7-3.9-6.8-20.3-3.3-16.4-17.7s4.1-0.8 6.3-1.4c17.4-4.5 24.2-30.9 38-27.2s-11.4 39.7-12.5 60.2c-0.3 5.9 10.7 12.7-0.1 17.8z"/>
<path class="cls-1" d="m683.9 1105.3c-49.7-49.2-133.5-79.6-146.7-148.8-6.6-34.5 6.4-74-13.1-103.3-26.9-40.5-92.9-29.5-129.1-61.9-26.3-23.6-34.6-68.1-68.5-78.2-25.6-7.7-51.5 9.3-77.9 13.7-41.5 6.9-92.2-26.5-102.3-66.3-4.6-17.8-8.6-37.9-23.7-48.3-13-8.9-30.2-7.9-45.7-5.5a392.4 392.4 0 0 0-75.4 19.6"/>
<path class="cls-1" d="M1.5,653.2c32.3-13.3,64-19.4,78.9-21.8a105.5,105.5,0,0,1,15-1.4c6,0,10.4,1,13.2,2.9,6.5,4.6,9.8,17.7,13,30.5l1,4c11.7,46.2,64.1,85.3,114.3,85.3a94.5,94.5,0,0,0,15.2-1.2c10.9-1.8,20.9-5.1,30.6-8.4s21.1-7,29.5-7a21.7,21.7,0,0,1,6.9,1c11.4,3.4,19.6,17,29.1,32.8,7.9,13.3,16.9,28.4,30.1,40.2,20.8,18.7,47.7,25.6,71.3,31.6s44.2,11.3,53.8,25.8c7.9,12,7.5,29.2,7.1,49.2-.3,14.6-.6,29.8,2.3,45.3,10.7,56.2,58.4,90,100.6,119.9,11,7.8,21.9,15.5,31.9,23.4"/>
<path class="cls-1" d="M1.5,691.5c3.4-1.7,6.7-3.2,9.9-4.6,18.3-7.8,49.6-22.6,70.4-14.5,14.4,5.6,14.7,12.7,19.7,25.8,7.9,20.9,14,33.3,32.8,49.5,28.2,24.4,65.1,40.1,102.6,40.1,24.6,0,45.4-18.6,70.1-6.9,21.8,10.3,30.1,35.1,44.8,52.6,17.7,21.1,38,29,64.9,33.2,21.5,3.4,46,9.2,56.1,28.6,6.4,12.4,5,27.2,5.1,41.2.5,76.4,50.3,127,107.9,168.8M1.5,925.7a277.2,277.2,0,0,1,11,35.5,431.2,431.2,0,0,1,9.2,144.1"/>
<path class="cls-1" d="M1.5,701.6c4.5-2.7,9.4-5.4,14.7-8,20-9.9,46-11.2,63.5,2.9,5.8,4.7,10.3,10.8,14.8,16.8,37.4,50.5,73.6,87.2,141.9,87.2,11.3,0,21.7-3.2,30.8-6.1s15.2-4.7,22.1-4.7a27.7,27.7,0,0,1,12,2.7c11.5,5.5,18.9,17.1,26.7,29.4a167.5,167.5,0,0,0,14,20c22.1,26.4,47.7,33.6,72.1,37.4,19.2,3,39.9,8,47.2,22.2,4.1,7.7,3.9,17.9,3.8,28.7v7.1c.5,76.9,47.6,128.4,99.2,168.1M1.5,895.6c9,19.7,17,40.5,22.5,63.4a443.3,443.3,0,0,1,9.7,146.3"/>
<path class="cls-1" d="M4.9,753.7c9.7-22.2,35.5-37.9,58.6-31s34.3,29.3,48.6,47.4c22,28,52.6,44.6,85.8,55.7,31.3,10.6,64.8-9.2,95.1,3.5,26.4,11.2,35.1,46.1,59.9,60.7,19.5,11.5,45.5,8,64.5,20.5,20.8,13.6,26.1,41,33.6,64.7a233.6,233.6,0,0,0,81.8,115.9c5.9,4.5,12.2,8.8,17.3,14.2M1.5,763.9a61,61,0,0,1,3.4-10.2m72.2,351.6a483.5,483.5,0,0,0-2.6-120.8c-4.7-31.1-12.7-62.1-22.1-92.1-8.3-26.5-30.1-44-42.3-68.6a107.2,107.2,0,0,1-8.6-24.6"/>
<path class="cls-2" d="M419.4,1101.3a112.5,112.5,0,0,0-12,4m-291.9,0c11.1-98.8-10.8-201.5-64.4-285.5-5.1-8-10.5-16-13.1-25.1s-2-19.8,4.2-27c27.5-31.7,49,32.8,61.9,46.3,27,28.2,68.5,48.6,107.9,47.2,25.6-.9,53.4-3.4,74.4,11.2,17.4,12.1,26.5,33.9,44.3,45.4s37.9,11,55.1,20.5c21.9,12.3,28.8,34.3,37.9,55.9,10.3,24.7,27.1,47.1,41.4,69.8,4,6.4,8.2,14,5.6,21.1-6.3,17.1-37.5,12.5-51.3,16.2"/>
<path class="cls-1" d="M390.3,1105.3c13.6-5.9,27.2-12.9,35.6-24.9,21.3-30.7-23-82-48.4-97.6-14.7-9.2-32.4-12.8-47.1-22s-26.8-25.1-41.5-36.1c-20.7-15.5-42.7-17.4-67.5-16.8-21,.4-35.6-9.4-55.4-16.2-7.7-2.7-17.4-4.8-22.8,1.2s-2.9,13.5-.7,20.3c12.2,38.5,22.3,74.6,25.8,115a508.7,508.7,0,0,1,.8,77.1"/>
<path class="cls-1" d="m382.1 1095.7c13.8-5.8 26.7-11.9 33.9-22.3 3.5-4.9 4.3-11.1 2.7-18.9-5-23.9-31.1-51.7-47.3-61.7-6.4-3.9-13.7-6.8-21.4-9.9s-17.3-6.8-25.7-12.1-17.7-13.9-25.3-21.5c-5.7-5.5-11-10.8-16.9-15.2-16-12-32.8-14.5-53.2-14.5h-8.2c-16.7 0-58.1-20-65-5.2s7.7 46 12.1 59.5c5.6 17.4 11.7 34.7 13.2 53a513.2 513.2 0 0 1 1 78.3"/>
<path class="cls-1" d="M217.2,1105.3a554.5,554.5,0,0,0-1.1-82.4c-1.4-16.5-6.1-35.6-14.3-49.9-3.3-5.7-5.3-13.6-.6-18.2s10.7-3,16.2-1.3c14.4,4.3,29.2-1.7,42.4,8.2,3.9,2.9,8.2,7.2,13.2,12.1,8.6,8.5,18.4,18.1,31.5,26.3,11.2,7,22.1,11.3,31.7,15.1,6.5,2.6,12.1,4.8,15.8,7.1,9.4,5.8,28.9,17.9,23.6,31.3s-32.4,19.3-43.5,26.1a164.6,164.6,0,0,0-33.1,25.6"/>
<path class="cls-1" d="M232.7,1105.3c-.5-10,2.1-20.6,3.5-30.2,2.3-17,8.6-33.9,7.4-51.3-.5-8.8-3.5-15.4-7.9-22.8s-5.3-10.3,2.9-14.5c18.2-9.1,26.9,26.2,47.2,39,8.1,5.1,47.7,2.7,43.4,20.8a9.9,9.9,0,0,1-3.4,4.7c-6,4.9-13.8,6.8-20.2,11.1a253.4,253.4,0,0,0-20.4,15.4,217.9,217.9,0,0,0-21.9,21.1"/>
<path class="cls-1" d="m263.3 1098.6c-2 2.1-4.1 4.3-6.1 6.7"/>
<path class="cls-1" d="M697,6.3c25.7,4.5,52.4,3.2,77.6,16.3,63.5,32.9,101.9,111.7,69.1,177.9-8.2,16.4-20.2,32.1-20.5,50.4-.4,32.2,34,52.5,49.5,80.7,23.1,42.2-8,103.1-55.6,109.1-14.5,1.7-29.5-.7-43.4,3.4-35.6,10.4-46.9,55.5-75.5,79.1s-73.3,21.4-103.4-.4-46-59.4-47.4-96.5c-1.1-28.3,5.3-56.3,6.8-84.6s-2.9-58.7-21.9-79.6-56.2-33.6-61.1-63.3c-3-18.2,7.9-35.7,10.5-54,11.5-80.9-88.9-94.2-131.5-133.4q-2.6-2.4-5.1-5.1"/>
<path class="cls-1" d="M637.9,6.3a141.3,141.3,0,0,0,22.3,13.3c20,9.6,40.5,11.8,58.6,13.8s32.7,3.5,46.5,10.7c50.5,26.2,86.1,91.2,58.8,146.1-1.8,3.5-3.8,7.1-5.9,10.9-7.9,14.1-16.8,30.1-17.1,50.1-.4,29.8,18.5,51.3,33.7,68.5,7.5,8.4,14.5,16.3,18.8,24.3,7.1,12.8,6.4,29.8-1.6,45.6s-21.5,26.3-36,28.1c-4.3.5-9.2.5-14.5.6-9.8.1-21.1.1-32.8,3.6-29.7,8.7-45.8,32.6-60,53.8-7.9,11.7-15.4,22.7-24.1,30S663.5,517,650.2,517a69.4,69.4,0,0,1-39.8-12.6c-22.2-16.2-36.3-45.4-37.6-78.2-.6-15.1,1.3-30.7,3.3-47.2,1.4-11.4,2.9-23.2,3.5-35.2,2.2-41.7-7.3-74.4-28.2-97.3-8.9-9.8-19.6-17.4-29-24.2-15.4-10.9-24.8-18.2-26.2-26.9-.9-5.7,1.5-13.4,4.4-22.4,2.3-7.3,4.9-15.5,6.2-24.4,10.3-73.1-49.7-104.1-93.6-126.8-10.1-5.2-19.9-10.3-28.5-15.5"/>
<path class="cls-2" d="M560.2,6.3c16.5,17,35.6,33.7,60.5,45.5s50.2,14.8,70.1,17c13.9,1.5,26,2.8,33.8,6.9,34.4,17.8,60.6,62.3,43,97.7-1.3,2.6-3.1,5.8-5,9.2-9,16.1-21.3,38-21.7,67.2-.3,21.3,6.3,40.9,16.9,59.1,3.5,6.2,6.9,13.4,11.8,18.5,6.8,7.2,15.9,10.7,21.4,19.3s6.5,22.9-1.7,30.1-17.6,5.6-27,5.8c-38.2.9-75.4,21.8-95.9,54-6.1,9.7-10.9,20.3-18.4,29-5.7,6.5-13.5,11.8-21.9,13.1a21.1,21.1,0,0,1-8.3-.1c-22.2-4.2-32.1-35.8-32.9-55.2-.4-12.2,1.2-25.7,3.1-41.3,1.5-12,3-24.4,3.7-37.6,1.5-28.9-1.6-58.7-13.2-85.4-12.7-29.5-37-44.4-57.5-66.9-4.7-5.2-8.3-11.9-8.3-19,0-10.3,6.8-18.8,8-28.8s-.4-23.4-2.1-33.8c-4.3-26.7-17.4-50.7-36.2-69.9C468.8,26.6,453,15.9,436.5,6.3"/>
<path class="cls-1" d="M541.3,6.3c3.6,4.4,6.9,8.8,10,13.2s5.2,7.1,7.9,10.5c17.4,22.1,33.6,36.1,51.2,44.2,29.4,14,57.6,17.1,78.2,19.3,23.3,2.6,52.4,12.4,57.9,44.9,3.9,22.6-7.4,43.1-16.4,59.5s-12.6,30.6-12.8,52.7c-.3,17,3.7,34.2,11.9,52.5.7,1.5,2.8,4.7,4.7,7.9,8.3,13.3,18.6,29.8,14.8,43.5a20.3,20.3,0,0,1-10.6,12.7c-6.1,3.1-12.2,3.3-17.4,3.3h-4.1c-13.8.2-29.1,8.3-47,24.7-1.4,1.2-5.6,6.7-8.7,10.8-12.1,15.6-21.3,26.9-30,31.1A17.6,17.6,0,0,1,623,439a15.4,15.4,0,0,1-5.6-1c-16.1-6.5-14.7-28.3-14.2-35.5.7-10.9,3.8-20.9,6.9-30.5s5.4-16.9,5.8-24.9c1.9-36.3-3.2-68.7-15.2-96.4-6-13.9-14.8-27.4-26.2-40.3a109.2,109.2,0,0,0-10.1-8.9c-8.1-6.5-17.2-13.9-21.3-24s-2.1-19.9-.4-27.7a64.7,64.7,0,0,0,1.4-7.8c1-9.7.4-21-1.8-34.4-3.7-23.4-21-40.3-41-59.8-4.3-4.2-8.8-8.6-13.2-13.2-.2-.1-11.7-13.6-17.4-28.3"/>
<path class="cls-1" d="M525.9,6.3a44.5,44.5,0,0,1,4.8,4.9c7,8.3,13,17.5,19.8,26.1,8.4,10.7,17.5,21,27.9,29.8a124.2,124.2,0,0,0,19.3,13.6q3.9,2.3,8.1,4.2c31,14.8,60.3,18,81.7,20.3s43,10.3,47.2,34.9c3,18-6.3,35.5-15,51.6-10.9,19.8-14.1,36-14.4,58.2-.2,20.1,4.8,39.2,13.1,57.4,4.4,9.9,29.4,40.7,14.3,48.3-4.9,2.5-10.7,2-16.2,2.1-20.8.2-40,14.2-54.7,27.8-6.2,5.6-25.3,34.8-35.6,39.8a5.1,5.1,0,0,1-3.9.5c-7.6-3-7-17.3-6.6-23.5,1.2-19,11.7-36.5,12.6-55.3,2-38.1-3.4-72.3-16-101.6a164.2,164.2,0,0,0-28.2-43.5c-8.3-9.3-24.5-18-29.1-29.3s.9-19.8,1.8-29.8c1.2-12.2.1-25.2-1.8-37.4-5.3-33-32.6-53.8-57.3-79.3-2.1-2.1-8.4-10.8-12.8-19.8"/>
<path class="cls-1" d="m645.7 362.1a7.8 7.8 0 0 1-2.2-3.9c-1-3.3 0.8-6.7 2.2-9.8 10.4-21.5 7.1-43.4 4.2-66a221.4 221.4 0 0 0-15.9-58.9 180.2 180.2 0 0 0-23.6-39c-8.8-11.2-24.1-19-30.4-31.5-5.6-10.9 3.7-13.4 0.4-29.7a101.2 101.2 0 0 0-12.2-31.4c-3.4-5.3-7.2-9.9-5.6-14.2s6-5.6 9-6c10.9-1.8 17.9 11.5 29.6 20.6 13.3 10.3 38.4 12.7 88.5 17.6 7 0.7 22.6 2.2 28.5 12.7a20.3 20.3 0 0 1 2 6.3c2 11.9-6 26.4-13 39.2-13.5 24.5-16.4 44.7-16.7 67.3-0.2 14.9 2.2 29.5 6.1 43.8 3.1 11.2 22.5 32.7 20.4 43.4-1 5.2-5.4 9.3-10.3 11.2-7 2.7-14.5 1.6-21.5 4.2a73.5 73.5 0 0 0-24.1 14.6c-3 2.8-10.8 13.6-15.4 9.5z"/>
<path class="cls-1" d="m675.9 319.4a9.9 9.9 0 0 1-4-6.4c-5.7-33-5.6-64.6-19.2-96.2a177.9 177.9 0 0 0-22.7-38.6 182.5 182.5 0 0 0-14.9-16.8c-10.3-10.1-18-16.6-17.6-32.8 0.2-5.8 3.3-12 8.8-13.9 3.8-1.3 8-0.4 12 0.5l52.5 12.5c7.3 1.7 14.7 2.3 21.9 3.5s11.5 2.5 7.2 11c-13.8 27.6-25.6 53.4-27.2 84.9a169.3 169.3 0 0 0 6.2 55.7c2.4 8.5 9.8 19.2 10.5 27.7s-6.3 13.7-13.5 8.9z"/>
<path class="cls-1" d="M1809.4,6.3c-1.5,2.4-3,5-4.3,7.6-14.7,29.9-5.7,65.4-8.8,98.5-5.6,59.9-56.9,112.3-116.6,119-66,7.5-125.9-34.2-185-64.5s-139-47.3-185.9-.2c-10.9,11-19.1,25.4-19.7,40.8-1.6,39.7,44.5,68.3,45.4,108s-46.2,70.2-46.7,111c-.6,42.5,46.7,66.8,72.7,100.4,16.4,21.1,24.7,47.6,28.4,74,4.3,31.7,1.8,66-16.6,92.1s-56,40.1-83.8,24.5c-24.1-13.6-35.7-45.1-61.7-54.5-35.2-12.6-85.1,18.5-106.5-12.1-12-17.2-2.5-41.5,11.6-56.8s33-26.9,43.7-44.9c34.9-58.7-36.6-136.5-9.6-199.3,12.5-29,44.6-49.9,45.7-81.4.8-26.9-21.8-48.5-29.1-74.4-13.5-47.7,11.7-91.8,13.5-138.8.7-17.9-4.2-33.9-12-49"/>
<path class="cls-1" d="M1789,6.3c-10.7,24.1-10,49.6-9.3,72.3.3,11,.6,21.4-.3,31.2-4.5,48.2-47.3,91.8-95.4,97.2a110.3,110.3,0,0,1-12.9.7h-.1c-42.5,0-83.6-22.3-127.1-46-10.2-5.6-20.8-11.3-31.3-16.7-40.3-20.7-82.7-32.1-119.1-32.1-38.3,0-71.1,12.6-94.7,36.4-16.5,16.5-26,36.7-26.8,56.8-1.1,28.1,13.6,50.1,26.6,69.4,9.6,14.2,18.5,27.6,18.8,39.9s-8.8,26.6-19.2,42.3c-12.8,19-27.2,40.6-27.5,67.8-.5,39.7,27.1,65.5,51.4,88.2,10,9.3,19.3,18.1,26.4,27.2,12,15.5,19.9,36.5,23.5,62.5,3,21.8,3.3,52.5-12.4,74.8-8.6,12.3-24.4,20.8-38.3,20.8a28.2,28.2,0,0,1-14-3.4c-7.2-4.1-14-12.1-21.1-20.5-11.3-13.3-24.1-28.3-44.3-35.6-8.6-3.1-18.1-4.6-29.1-4.6s-21.1,1.4-31.2,2.8c-8.3,1.1-16.1,2.2-22.5,2.2-9.6,0-11.1-2.2-12.2-3.7-3.3-4.8,1.2-17.5,9.7-26.6,4.3-4.8,9.5-9.3,15-14.2,10.7-9.4,22.9-20,31.6-34.6,23.5-39.4,10.7-82.7-.5-120.8-8.9-30.3-17.3-58.9-7.7-81.2,3.7-8.6,10.6-17.3,17.8-26.5,13.6-17.2,29-36.7,29.9-63.6.7-22.7-9.5-41-18.5-57.1-4.8-8.7-9.4-16.9-11.5-24.5-6.7-23.6-1.3-47.1,5.1-74.2,4.2-18.2,8.6-36.9,9.3-57,.7-18.1-3.1-34.5-9.4-49.6"/>
<path class="cls-1" d="m1319.8 688.6c-5.6-1.7-9.8-7.7-14.4-13.1-9.8-11.5-20-22.7-32.3-31.7-17.4-12.9-32.5-15.5-53.6-18.3-5.1-0.7-10.7-1.7-14.1-5.5s-3.5-12.3 0-17.6c6.9-10.2 14.8-13.7 19.8-25.9a112.7 112.7 0 0 0 8.5-46.3c-0.9-32.7-13.4-63.9-22.7-95-7.6-25.7-5.1-52.3 0.8-65.9 2.4-5.5 8.9-13.6 15.1-21.4 10.2-12.9 14-31 22.8-44.9 7.2-11.3 21.5-19.7 30.5-5.5s-3.5 29.4-11.5 41.2c-15.3 22.8-21.5 51.1-22 89.4-0.4 35.2 10.9 75.6 36.6 101.2 22.3 22.3 45.2 45 55.9 75.2 7 20 14.9 67.6-7.4 81.6-4.8 3-8.6 3.5-12 2.5z"/>
<path class="cls-1" d="M1732.4,6.3c-7.4,24.5-6.6,48.4-6.1,68.4.4,9.9.6,19.2-.1,27-3.2,34-34.5,65.9-68.4,69.8-3.1.3-6.3.5-9.5.5-34.5,0-71.7-20.2-111-41.7-10.2-5.5-20.7-11.2-31.2-16.6-43.5-22.3-89.5-34.5-129.5-34.5-29.5,0-61.2,7.1-86.7,23.8a119.1,119.1,0,0,0-33.9,33.2c-6.2,9.3-11.4,33.8-23.7,36.6l-1.2.2c-15.7,1.5-1.2-49.9.9-59.2,4.3-18.2,9.1-38.8,9.9-61.1a140.6,140.6,0,0,0-6.3-46.4"/>
<path class="cls-1" d="m1318.7 653c-12.3-1.7-23-20.2-33.2-27.7-11.9-8.8-44.6-9-46-27.7-0.4-5.5 8.8-26.9 10.8-33.8 3.3-11.3 6.7-21.4 20.7-14.5 20.3 10 36 43.9 43.1 63.9 4.3 12.3 9 27.1 4.6 39.8z"/>
<path class="cls-1" d="M1705.9,6.3a184.7,184.7,0,0,0-3.5,32.5c-.4,25.7,3.6,54.2-11.9,74.7-9.9,13-25.7,19.3-42.2,20.4a86.1,86.1,0,0,1-29.1-3.3c-25-7.4-46.2-23.5-68.5-36.9a348.4,348.4,0,0,0-141.4-47.1c-22.4-2.5-52.1-6.5-73.7,1.5-18,6.6-35.2,26.1-55.6,25.3-18.3-.8-12.9-17.3-12.3-33.2a162.2,162.2,0,0,0-2.4-33.9"/>
<path class="cls-1" d="M1472.9,788c-35.5,0-57.2-23.8-59.5-46.1-1.2-11.1,1.7-21.4,3.9-28.2,6.3-19.1,16.7-37.1,26.8-54.4,17.2-29.5,33.4-57.4,26.4-86.3-5.5-22.4-24-39.4-43.5-57.3l-13.4-12.5c-34.5-33.5-46.5-71.1-32.2-100.6,4.4-9.1,10.8-16.4,16.9-23.4,7.6-8.7,14.2-16.2,15.2-24.7.7-6.9-2.3-14.7-5.5-23-1.3-3.4-2.7-7-3.8-10.7-9.9-30.7-2.1-64.7,19.3-84.6a48.6,48.6,0,0,1,33.8-13.2c25.5,0,52.8,17,79.2,33.4,17.8,11.2,34.7,21.7,48.1,25,7.8,2,15.8,3.8,23.6,5.6,29.3,6.7,59.5,13.6,87,28.5,25.6,13.9,53.2,43.5,71.9,77.4,34.9,63.1,30.5,121.6-11.4,152.7-25.1,18.7-57.5,18.8-86,18.9h-9.1c-36.6.4-60.4,9.4-70.6,26.7-4.9,8.3-6.8,18.7-8.7,29.7l-.3,1.8c-6.5,36.2-14.3,64.9-24.5,90.3-15,37.1-34.6,60.2-60,70.5a63.5,63.5,0,0,1-23.6,4.4Z"/>
<path class="cls-1" d="m1754.5 403.7c-17.8-32.1-43.6-59.9-67.2-72.7-33.1-17.9-71.2-23.8-107.7-32.9-44.4-11.1-111-84.2-149.9-48.1-19.1 17.7-24 47.3-16.1 72.1 4.1 12.8 11.3 25.4 9.8 38.7-2.4 20.7-24.1 33.3-33.2 52-14.2 29.5 6.3 63.9 29.7 86.7s52.5 43.9 60.2 75.7c12.6 51.9-36.7 96.6-53.4 147.3-2.5 7.4-4.2 15.3-3.4 23.1 3 28.3 40.2 42.6 66.6 31.9s42.7-37.5 53.3-63.9c11.4-28.2 18.4-58 23.8-87.9 2.2-12.2 4.2-24.8 10.5-35.5 15.5-26.1 50.4-32.3 80.8-32.6s63.7 1.5 88.1-16.7c43.1-31.9 34.5-89.4 8.1-137.2z"/>
<path class="cls-1" d="M1473.6,751c-10.4,0-22.7-5.6-23.5-13.8-.3-3.1.4-7.4,2.3-13.1,5.1-15.5,14.1-31,23.7-47.5,19-32.7,40.5-69.8,30.1-112.7-8-33-32.4-55.5-54-75.2-4.4-4.1-8.6-8-12.6-11.9-16.7-16.2-33.3-41.4-24.8-58.9,2.2-4.6,6.8-9.8,11.6-15.3,9.6-11,21.5-24.6,23.7-44.3,1.8-15.7-3.4-29.2-7.5-40-1.2-3.1-2.4-6-3.2-8.7-5.6-17.3-1.6-36.7,9.5-47.1a12.1,12.1,0,0,1,9.1-3.5c15.1,0,38.9,14.8,59.9,27.9s39.4,24.6,58.3,29.3c8.1,2.1,16.3,4,24.3,5.8,28.1,6.4,54.6,12.5,77.6,25,19.6,10.6,42.1,35.3,57.4,63,12.2,22.1,18.9,44.4,19,62.9s-6.6,33-20.3,43.2c-15.6,11.6-39.3,11.7-64.4,11.8h-9.4c-50.1.5-84.1,15.5-101.1,44.4-8.2,13.9-10.8,28.6-13.1,41.6l-.4,1.7c-6,33.7-13.1,60.1-22.4,83.1-10.9,27.1-24.3,44.1-39.9,50.4a26.1,26.1,0,0,1-9.9,1.8Z"/>
<path class="cls-1" d="m1539.1 522.2c-23-5.6-27.8-35-43.2-50.8-13.3-13.5-38.1-24.6-41.1-44.7-3.6-24.1 25.9-47.3 25.8-75.5 0-14.1 3.3-31 16.4-36 19.4-7.3 51.6 22.8 71.1 27.7 8.4 2.1 16.8 4 24.8 5.8 26.9 6.2 50 11.5 68.7 21.6 24.3 13.2 70.5 69.3 53 98.4-6.7 11.3-20.2 17.2-33.4 18.2-29.7 2.3-48.5-2.9-78.1 7.9-19.5 7-38.3 30.9-60.6 28z"/>
<path class="cls-1" d="m1545.4 484c-11.7-0.8-14.4-13.5-19.3-22.6-6.6-12.2-15.9-23.3-27.9-30.4-8.3-4.9-17-11.6-17.7-21.1-0.3-4.4 1.3-8.6 2.8-12.8l19.5-52.6c7.4-19.9 21.6-12 34.9-3.5 20.1 12.9 42.6 17.8 65.5 22.9 34.7 7.9 66.6 22.8 84.7 55.1 4.4 7.9 5.3 18.6-0.4 25.7-8.4 10.5-24.6 7.8-38 6.6a115.4 115.4 0 0 0-75.9 19.7c-7.8 5.4-15.4 11.9-24.8 12.9a19.6 19.6 0 0 1-3.4 0.1z"/>
<path class="cls-1" d="m1557.1 432.1c-11.4-2.8-20.4-12.1-28.5-20.8s-14.1-15.5-17.5-25.2c-12.9-37.4 25.4-28.4 46-23.1s43.5 9.9 63.5 19.3c5.4 2.6 21.7 9 19.7 16.9s-40.1 20.9-47.3 24.6c-10.3 5.2-21.3 10.5-32.7 9z"/>
<path class="cls-1" d="m507.7 460.3a17.6 17.6 0 0 0-1.4-2.3c-17.4-27.6-25.7-52.4-27.2-85.6-1.6-37.2-0.4-77.7-22.5-107.7-18.6-25.2-51-38.8-65.7-66.4-12.6-23.4-9.6-51.6-9.8-78.2-0.3-53.5-38.6-100.5-93-108.1-30.7-4.3-89.1 6.5-117.9 21.9-45 24.1-49.3 78-57.6 122.5-15.7 84.5-112.1 122.4-112.1 210.8-0.4 45 19.7 89.7 53.5 119.2 14.4 12.6 31.5 22.7 50.3 26.4 51.6 10.3 106.3-27.9 155.8-9.6 25.9 9.5 44.5 33.4 54.3 59.3s6.1 57 23.8 79.1c11.4 14.2 36.2 27.1 50.9 38.2s77.1 68.3 99.7 52.5c21.1-14.9 14.1-68.5 17.6-92.1 9.4-63 37.1-124.4 1.3-179.9z"/>
<path class="cls-1" d="m458 676.7c-30.3 4.7-78.8-42.5-90.3-66.7s-16.5-50.1-28.5-73.6a143.7 143.7 0 0 0-90.1-72.6c-61-16.1-119.3 41-171.5-4.8a122 122 0 0 1-41.1-91.7v-0.3c0-34.3 21.9-60.3 47.3-90.4 30.7-36.5 56-73.9 64.7-121.6 3.9-21.4 6.7-43.5 16.6-62.9 19.3-37.7 68.3-45.1 106.9-45.1a93.3 93.3 0 0 1 10.5 0.6c86.3 12.2 45.7 108.7 71.5 162.6 15.8 33 54.6 49.4 73.3 80.9 33.7 56.7 10.2 126.5 47.3 185.8l1.7 2.7c20.7 32.2 19.9 79.9 16.1 116.4-2.1 20-5 42.8-13.9 61.2-6.1 12.7-13 18.4-20.5 19.5z"/>
<path class="cls-1" d="m442.5 625c-13 4.7-29.4-6.6-41.8-32.8-4.5-9.3-8-19.8-11.8-30.9-4.8-14.2-9.8-28.9-17.3-43.6-22.7-44.3-65-78.3-113.1-90.9a126.8 126.8 0 0 0-32.9-4.2c-21.9 0-42.4 5.1-60.4 9.5-14.4 3.6-28 6.9-39.2 6.9s-17.2-2.7-24.7-9.2a85.7 85.7 0 0 1-28.8-64.2v-0.6c0-20.1 14-37.7 38.9-67.1s45.6-58.5 59.4-92.8 7-80.2 37-106.9c17.4-15.5 59.5-28.3 81.5-13.8 19.3 12.7 17.2 39.1 18.1 60.3 1.2 25.4 2.4 54.2 14.5 79.2s30.4 40.5 47 54.9c11.3 9.8 22.1 19 27.9 28.8 12.2 20.6 14.5 45.4 17.2 74.2 3.3 34.9 6.9 74.4 30.6 112.1l1.9 3c16.1 24.9 20.9 63.5 16.4 92.4-3.2 20.5-10.9 32.3-20.4 35.7z"/>
<path class="cls-1" d="M437.5,618c-6,0-16.1-8.3-25-27-4.2-8.8-7.6-19-11.2-29.8-5-14.6-10.1-29.8-18-45.3-24.2-47.5-69.4-83.9-120.8-97.5a141.3,141.3,0,0,0-35.9-4.5c-23.4,0-44.6,5.2-63.3,9.8-13.6,3.4-26.6,6.6-36.3,6.6-7.1,0-11.5-1.7-16.8-6.3a73.6,73.6,0,0,1-24.7-55.2v-.6c0-16.1,13-32.4,36-59.7,30.1-35.7,49-65.5,61.5-96.5,5.6-14,8-29,10.4-43.5,3.8-23.2,7.4-45,23.3-59.3C226.2,100.8,247,92,265.5,92c7.6,0,13.8,1.5,18.2,4.4,10.8,7.1,11.9,21.4,12.4,42.5.1,2.9.2,5.8.3,8.5,1.2,26.7,2.5,56.9,15.6,84.3s32.5,43.8,50,58.9c10.6,9.2,20.6,17.9,25.4,26,10.9,18.3,13.1,42,15.6,69.4,3.4,36.4,7.2,77.6,32.4,117.9l2,3.1c13.1,20.4,19.1,55.1,14.6,84.3-2.7,17.1-8.4,24.9-12.6,26.4A5.8,5.8,0,0,1,437.5,618Z"/>
<path class="cls-1" d="m268.8 392.7a166.7 166.7 0 0 0-42-5.3c-14.4 0-29.9 1.2-44 4.3-12.3 2.8-23.9 9.4-36.7 10.8s-24.9-2.5-31.7-12.2-6.1-19.6-2.8-29.2c5.2-15.1 18.3-27.4 28.4-39.4 31.8-37.7 52-69.5 65.4-103 6.6-16.4 9.4-33.5 11.9-48.5 3.2-19.6 6-36.6 15.6-45.2s25.7-16.5 35.5-6.5 5.4 29.9 5.3 42.8a180.9 180.9 0 0 0 43.4 117.6c14.3 16.7 38.7 28.9 49.9 47.7 8.1 13.6 10.1 34.8 12.3 59.2 3.5 37.2-52.6 22.2-110.5 6.9z"/>
<path class="cls-1" d="m350.1 382a5.1 5.1 0 0 1-1.6 0.9c-4.6 2-9.8 0.9-14.7-0.2-19.2-4.4-38.7-7.9-57.8-12.8l-1-0.3c-37.3-9.7-77.2-8.5-113.3 5.4-4.4 1.8-8.9 3.7-13.7 3.8s-9.9-2-11.8-6.4 1.9-12.2 5.9-17.1c18-21.7 37.7-42.9 54.4-65.7 11.8-16.1 26.2-41.4 31.2-60.9 6.2-15.5 3.7-31.5 5.4-47.7a64.7 64.7 0 0 1 8.7-26.7c1.2-2 5.7-10.2 8.4-10.3 7.9-0.1 6.6 26 6.3 30.9-0.8 15.7-2.6 31.7 2.1 47a205.6 205.6 0 0 0 40.4 73.3c7.6 8.8 16.6 15.8 25.2 22.7 15.7 12.3 29.7 27.9 32.2 48.6 0.7 5.9-1.5 12.4-6.3 15.5z"/>
<path class="cls-1" d="M437.3,544.8c-3.1-7.2-8.1-13.3-11.8-20.1-7.5-13.7-9.6-29.6-14.6-44.3-3.3-9.5-9.4-12.6-16.3-18.6a12.2,12.2,0,0,0-3.8-2.6c-1.4-.4-3.3-.1-4,1.3s-.1,2.9.5,4.2a170.6,170.6,0,0,1,6.4,16.8c9.6,31.3,10.1,66,27,94,2.8,4.6,8.1,9.4,12.7,6.8,1.8-1,2.9-3,3.7-4.9A41.9,41.9,0,0,0,437.3,544.8Z"/>
<path class="cls-1" d="m1004 130.5c-2.8-17.6-15.6-32-28.9-44.1-16-14.6-34.1-28-55.3-33-11.7-2.8-33.1-2.7-33.1 14.4 0 4 1.5 7.8 3 11.5 7.1 17.8 23.7 38.2 12.3 57.4-4.8 8.1-12.2 14.5-17.9 21.9a70.5 70.5 0 0 0-14 52c3.4 24.8 27.2 71.3 55.4 44.2 18.4-17.7 8.5-50.6 33.2-66.1 5.3-3.3 11.6-5 17.4-7.7 18.8-8.7 31.1-30.1 27.9-50.5z"/>
<path class="cls-1" d="m911.9 256c-8.6 0-23-20.9-25.9-42.2a59.7 59.7 0 0 1 11.4-43.3c2-2.5 4.2-5 6.5-7.6 4.2-4.7 8.6-9.6 12.2-15.7 14.7-25.2-3.9-45-12.2-67.5-1.3-3.4-1.2-7.6 1.2-10.5s11.1-1.2 15.6-0.2c20.4 5 38 19.7 49.6 30.4s22.6 22.5 24.9 37.3-7 31.4-21 38c-1.7 0.9-3.7 1.6-5.8 2.5a63.5 63.5 0 0 0-12.8 6c-17.6 11.2-21.6 29.1-24.9 43.5-2.2 10.1-4.2 18.9-9.9 24.5-2.3 2.2-5.7 4.8-8.9 4.8z"/>
<path class="cls-1" d="M908.6,224a4.5,4.5,0,0,1-4.2-2.4c-2.9-5.5-1.7-16.2-1.4-22.2.5-7.8,2.7-15.4,7.6-21.7,1.4-1.9,3.3-4,5.4-6.4,4.7-5.2,10-11,14.6-18.8,14.4-24.4-13.2-53.4-.8-62.5a8.7,8.7,0,0,1,11.7.5,31.9,31.9,0,0,1,5,6.6,118.9,118.9,0,0,0,15.9,19.5c5.1,5.1,10.8,11.3,12,18.7s-3.9,14.6-10.2,17.5c-1.1.6-2.8,1.2-4.5,1.9a95.6,95.6,0,0,0-16.3,7.7,66.2,66.2,0,0,0-22.8,24.2c-5.1,9.2-10.4,19.4-9.3,30.2.2,2.5.5,5.7-1.8,6.9A1.6,1.6,0,0,1,908.6,224Z"/>
<path class="cls-1" d="m2001.5 449.2a68.6 68.6 0 0 0-8.3 8.7c-22.1 27.8-17.4 67.3-17.7 102.8s-13.5 78.4-48.2 85.5c-26.6 5.4-53.8-16-60.6-42.3-7.8-29.9 5.2-64.3-10-91.2-8.7-15.5-25.1-25.2-35.5-39.6-16.5-23-15.1-53.7-16.6-81.9s-9.2-60.5-34.6-73c-4.6-2.3-9.7-3.8-13.4-7.3-9.4-8.9-4.8-25.6 5.2-33.8s23.2-10.7 35.5-14.8a129.5 129.5 0 0 0 76.1-69c17.8-39.3-8.2-157 68.9-140.7 20.2 4.2 40.7 8.7 59.2 17.3"/>
<path class="cls-1" d="m2001.5 309.7c1.1 5.4 1.5 10.9 0 16.1"/>
<path class="cls-1" d="M2001.5,434.6a85.7,85.7,0,0,0-16.7,15.8c-21.3,26.8-20.8,62.2-20.4,93.5.1,5.8.2,11.2.1,16.7-.2,32.9-12.3,68.4-38.7,73.8a29.8,29.8,0,0,1-6,.6c-17.4,0-35.6-15.3-40.5-34.1-2.9-11-2.5-23.3-2-36.2.6-19.4,1.3-39.5-9.1-57.9-5.7-10.2-13.8-17.8-21.5-25.1-5.6-5.2-10.8-10.1-14.8-15.6-12.1-16.9-12.9-39.6-13.8-63.7-.2-3.9-.3-7.9-.5-11.8-2.1-42.2-16.4-70.9-41.3-83.2l-4.2-1.9c-2.6-1.1-5-2.2-6.2-3.4s-1.5-1.3-1.4-4.2,2.6-8.8,5.9-11.6c5.9-4.8,14.2-7.3,23-9.9l8.7-2.7c36.4-12.2,67.5-40.4,83.3-75.5,6.3-13.9,7.7-34.2,9.2-55.7,3.4-48,7.7-79.5,35.2-79.5a57.4,57.4,0,0,1,11,1.3c20.8,4.4,42.2,8.9,60.7,18.5"/>
<path class="cls-1" d="m2001.5 309.7c1.1 5.4 1.5 10.9 0 16.1"/>
<path class="cls-1" d="M2001.5,389l-7.9,3c-30.7,11.8-48.5,27.5-64.3,55.7s-16.6,65.2-16.2,97.8c.2,15.1-1.4,37.4-9.2,50.5a15.2,15.2,0,0,1-6.1-8.5c-1.9-6.5-.1-13.9.1-20.5.8-22.1,1.7-49.6-13.7-76.8-14.3-25.5-38.8-34.4-43.5-66.1-2.9-19.5-1.6-40-9.2-58.2-6.8-16.4-20.7-30.4-21.9-48.2-1.6-22.8,18.2-41.1,37.6-53.2,21-13.1,40.3-24.5,52.4-46.8,14-25.7,17.2-55.3,14.1-84.1-.9-8.3-2.4-17.1,1-24.8,10.2-22.7,40.3-7.1,54.3,2s23.5,24.3,32.5,38.6"/>
<path class="cls-1" d="m2001.5 309.7c1.1 5.4 1.5 10.9 0 16.1"/>
<path class="cls-1" d="M2001.5,376.9l-12.4,4.8-1.8.8c-19.4,7.4-37.5,17.9-52,32.8-8.8,9-15.6,19.6-21.6,30.7-4.1,7.6-5,18.1-11,24.8a9.6,9.6,0,0,1-4.7,3.1c-7.4,1.7-14-10.7-19.1-16.9s-10.2-14.7-11.6-23.7c-.8-5.4-1.2-11.2-1.7-17.3-1.2-14.3-2.4-30.6-9-46.4a161.1,161.1,0,0,0-10.9-20.4c-4.5-7.5-8.8-14.6-9.2-20.1-.6-8.8,9.3-20.4,26.3-31.1l2.9-1.9c21.2-13.2,43.2-26.9,57.7-53.7s13.7-61.1,15.2-91.7c.2-4.1.7-8.8,4-11.2s6.3-1.8,9.2-.5a23.3,23.3,0,0,1,7.6,6c16.3,16.8,30.3,36.6,42.1,58"/>
<path class="cls-1" d="m2001.5 309.7c1.1 5.4 1.5 10.9 0 16.1"/>
<path class="cls-1" d="M2001.5,366.7c-5.6,2.2-11.6,3.9-17.7,5.8-20,6-41,21.6-55.4,36.3a118.6,118.6,0,0,0-15.6,20.4c-3.2,5-9,17.4-13.6,18.7-2.5.7-4.7-1.8-6-10.5-.8-4.8-1.2-10.2-1.6-15.9-1.9-23.8-5.3-48.6-19.3-68.6-3.4-4.8-6.7-10.2-6.8-16.1-.1-9.8,10.3-12.9,17.3-17.2,22.2-13.9,47.4-29.6,64.4-60.8a115.7,115.7,0,0,0,13.4-58.5c-.2-4.5-.2-10,3.7-12.4s7.7-.4,10.3,2.5c8.9,10.3,15.6,26.9,21.9,39.2,1.7,3.3,3.4,6.6,5,10"/>
<path class="cls-1" d="m2001.5 309.7c1.1 5.4 1.5 10.9 0 16.1"/>
<path class="cls-1" d="m2001.5 325.8a22.5 22.5 0 0 1-4.9 8.9c-8 9.3-21 11.9-32.6 16.1a106.9 106.9 0 0 0-39.1 24.3c-4.1 4-13.1 14.8-20.2 13.9a5.8 5.8 0 0 1-2.5-0.9c-6.4-4-5.9-18.3-8-24.7-3-9-9.7-16.7-12.3-25.9s6.8-10.3 13.2-14.6 9.7-6.7 14.4-10.3c24.9-18.6 48-42.6 55-73.8 0.5-2.2 1.1-4.5 2.8-5.9 4.1-3.2 6.9 3.5 8.3 6.1 3.7 6.6 5.8 13.9 8.7 20.8 4.8 11.3 9.1 22.9 12.8 34.6a150 150 0 0 1 4.4 15.3c1.1 5.4 1.5 10.9 0 16.1z"/>
<path class="cls-1" d="m1901.1 348.5-1 0.6a3.8 3.8 0 0 1-3.2 0.8c-1.2-0.5-1.4-2-1.4-3.3-0.1-3.5 0.2-7.3 1.9-10.4 2.9-5.4 8.3-3.8 12.6-7 10.1-7.3 17.2-17.8 24.6-27.5 4.6-6 14.7-21.5 24.6-16.8a6.6 6.6 0 0 1 3.8 5.2c0.4 5-2.7 8.9-0.6 14.2 1 2.6 2.7 5 3.1 7.8a8.4 8.4 0 0 1-2.8 7c-2.9 2.4-8.8 3-12.5 4.2l-7.5 2.4c-15.3 5.2-28.2 14.2-41.6 22.8z"/>
<path class="cls-1" d="M1888.1,1105.3l-1.1.8c-5.2,4.2-12,7-18.7,6.9a20.4,20.4,0,0,1-7.6-1.4"/>
<path class="cls-1" d="M2001.5,788.2c-3.7,9.7-7.8,19.3-11.1,28.7a445.5,445.5,0,0,0-24.9,151.3c.2,22.5,2.2,45.2-1.6,67.3-4.3,25.5-15.9,48.8-31.2,69.8"/>
<path class="cls-1" d="M1811.5,1105.3c-.8-7.4-1.2-14.8-4.6-21.2-5.9-11.1-18.9-15.9-30.6-20.4-13.5-5.3-27-11.6-37.8-21.5s-18.6-23.8-18.2-38.4c.7-27.4,27.6-45.5,49-62.7,36.3-29.2,64.7-70.8,69.2-117.2s-18.6-96.6-61.1-115.9c-21-9.5-44.7-11.1-66.1-19.8a107.7,107.7,0,0,1-55.9-52.3c-3.1-6.6-5.6-14.3-2.4-20.8,3.9-8.1,14.2-10.3,23.1-11.3,45.7-5.2,95.9-5.7,132.9,21.6,22.8,16.7,40.7,43.7,68.6,47.3,19.6,2.6,38.7-7.5,58.4-8.2,26.4-.9,52,19.9,65.5,44.1l1.1,2"/>
<path class="cls-1" d="M1888.1,1105.3l-1.1.8c-5.2,4.2-12,7-18.7,6.9a20.4,20.4,0,0,1-7.6-1.4"/>
<path class="cls-1" d="M1837.5,1105.3a27.5,27.5,0,0,1-1.5-3.6c-2.3-6.4-2.7-13.2-4.1-19.9-4.5-22.3-26.4-33.6-45.9-41.1l-1-.4c-10.3-4-22-9.2-30.3-16.8-6.6-6-10.6-13.6-10.4-19.9.4-13.3,16.9-26.3,33-38.9l7-5.6c44.9-36,73.4-84.7,78.2-133.5,5.9-59.7-25.1-117.3-75.2-139.9-13.2-6-26.4-9.1-39.2-12.2-10-2.3-19.4-4.6-27.8-8s-16-9.5-22.7-16-28-22.6-9.4-28.7c6-2,14.1.3,19.9,2,29.9,8.7,59.3,1.6,86.6,21.7,5.9,4.3,11.8,9.8,18,15.7,16.3,15.3,34.8,32.6,61.8,36a76.1,76.1,0,0,0,9.6.6c11.9,0,22.8-2.6,32.5-5,7.3-1.7,14.3-3.4,20.3-3.6h.8c14.9,0,33.6,14.2,43.6,33.2a51.6,51.6,0,0,1,5.7,16.5c2.5,17.3-5.1,35.5-12.1,50.9a305.6,305.6,0,0,0-19.7,58.8c-9.3,40-11.8,81.2-13.2,122.1-1,30.6-1.6,61.8-11.4,90.8"/>
<path class="cls-1" d="m1963.9 784.3a313.4 313.4 0 0 0-20.4 60.9c-9.5 41.1-12.1 84.1-13.5 124.3v4.6c-1 27.9-1.9 56.8-10.7 82.6-5.6 16.5-17.3 37.1-31.1 48.6l-1.1 0.8c-5.2 4.2-12 7-18.7 6.9a20.4 20.4 0 0 1-7.6-1.4 24.3 24.3 0 0 1-8.6-6.3 32.1 32.1 0 0 1-5.9-10.3c-4-11.2-2.4-21.8-9-32.2s-13.7-16.1-22.7-21.8c-14.4-8.9-33-11.6-46.5-21.2-6.1-4.3-10.7-11.6-9.5-18.9s6.9-12.3 12.8-16.2c53-35.4 96.8-92.9 103.2-157.5s-27.4-127.2-82.2-151.9c-14.3-6.4-28.1-9.7-41.4-12.8-9.6-2.3-18.6-4.4-26.1-7.5-4.6-1.8-20.4-8.4-20.3-14.8 0.2-11.6 29.2 0 34.9 0.6 18 1.8 33.5 3.3 48.2 14 5.3 4 10.9 9.2 16.9 14.8 16.8 15.7 37.6 35.2 68.5 39.1a81.7 81.7 0 0 0 11.1 0.7c13.3 0 25.5-2.9 35.3-5.3 6.8-1.6 13.2-3.2 17.9-3.3h0.5c9 0 24.4 10.7 32.9 26.7a44.8 44.8 0 0 1 4.5 12.6c1.8 13.8-4.9 30.1-11.4 44.2z"/>
<path class="cls-1" d="m1870.2 1084.9c-5.6-1.5-5.5-15.3-8.4-21.9a90.2 90.2 0 0 0-14.9-24c-12.4-14.5-29.5-24.6-48.3-27.4-3.8-0.5-8.1-1.1-10.1-4.4s-0.1-8.6 2.3-12.4c14.2-22.5 32.5-42.1 50-62.2s34.5-41.2 45.3-65.7 15-52.8 6.4-78.1c-3.4-9.9-8.7-19.1-11.9-29.2-9.7-30.8 15.9-28.3 38.1-32.3 8.3-1.5 17.6-2.7 24.2 2.5s7.1 11.5 6.5 18.2-3.4 12.9-6 19.1a488.7 488.7 0 0 0-37.9 176c-0.7 26 0.6 52.2-3.3 77.9-2 13.3-5.1 26.6-10.5 38.9-3.3 7.4-8.4 17.7-14.9 22.7-2.8 2.1-4.9 2.7-6.6 2.3z"/>
<path class="cls-1" d="m1872.5 1042-1.1-0.2c-2.8-1.2-4-7.3-5.3-9.7a73.5 73.5 0 0 0-10.2-15c-5.9-6.9-13.7-11.6-21.8-15.5-5.3-2.5-20.8-5.6-21.6-12.6s9.7-13.2 13.4-17.8c5.7-7.1 11.7-13.9 17.7-20.7l7.2-8a286.6 286.6 0 0 0 28.7-38.2c4-6.4 9.6-13.9 11.9-21.1 1-3.4-0.2-15.2 5.3-15.2 3.8 0-7.7 55.4-8.3 59.9-2.2 16.2-0.6 33.5-1.6 49.9s-2.5 33.1-4.4 49.6c-0.4 3.5-0.9 7-2.6 9.9s-4.4 4.9-7.3 4.7z"/>
<path class="cls-1" d="M1868.2,1010.8c-2.3,1.2-4.2-2.5-4.8-4.5-3.4-11.2-13-13.9-22.2-18.5a7.7,7.7,0,0,1-3.4-3.5c-1.3-3.4,1.7-6.6,3.7-9s5.5-6.9,8.2-10.4l8.3-10.6c1.5-2,3.3-3.8,4.9-5.8s2.3-4,3.7-5.8a4.6,4.6,0,0,1,3-1.7c2,0,3.6,2,3.9,4.1s-.8,4.1-1.1,6.1-.2,4.9-.3,7.3c-.2,5.1-.2,10.3-.4,15.4-.4,10.2-.7,20.3-.9,30.5,0,1.9-.1,4-1.4,5.5Z"/>
<path class="cls-2" d="M1.5,545.9c3.4.9,6.8,1.6,10.3,2.3,63.9,11.8,134-15.6,193.1,11.7,8.9,4.1,17.5,9.6,23.2,17.7,17.4,24.7,1.3,62.7,19.3,86.9,12.7,17,36.8,19.8,58,18.6s43.5-4.7,62.6,4.5c26.4,12.7,36.5,44.5,55.6,66.7,22.3,25.9,56,38.1,86.6,53.3s61.6,37.8,68.3,71.3c3.3,16.2.3,32.9,1.8,49.4,3.3,36.1,27.9,66.9,55.5,90.5s59.1,42.6,84.3,68.7a159.6,159.6,0,0,1,14.9,17.8"/>
<path class="cls-2" d="M1048.1.7c1.8,1.8,3.6,3.7,5.3,5.6,15.1,16.3,27.6,35.3,33.5,56.7,6.7,23.8,4.4,50.9-9.9,71.2-32.2,45.8-114.5,59-126.9,118.9-13.3,64.1-11.9,147.4-79.3,182.8-21.2,11.2-46.7,14-65.9,28.5-27.7,21-34.1,60-55.3,87.5-24.8,32.2-68.2,45.6-107.4,41.4-14.6-1.5-29.5-3.8-43.8-.4C577,598,571,615.3,561.6,632.6c-3.5,6.6-7.8,13.1-14,17.2-31.1,20.8-31.4-26.1-25.1-42.8,9.3-24.8,32.4-43.1,37.4-69.8,6.7-36.1-23.9-67.5-34.4-102.7-14.2-47.1,8.1-101-11.9-145.9s-74.5-68-80.5-115.2c-1.5-12.3.6-24.7-.2-36.9-2.1-32.6-24.4-60.6-50-80.8-22.9-18.2-49.1-32-72.5-49.4"/>
<path class="cls-2" d="M1734.5,1100.5c-6.6-13.8-9.6-29.2-16.6-42.8-6.1-12-14.9-19.1-16-33-3.5-43.1,31.7-61.3,56.6-89.3s64.5-91.1,60.7-128.5c-2.3-23.2-19.4-42.7-39.5-54.4s-43.3-16.9-66-22.3c-27.7-6.6-55.7-26.1-83.9-26.3-57.1-.3-75.5,67.5-111.6,98.9-38.7,33.7-87.1,60.8-125.1,17.1-42.7-49.2-112.5-63-176.9-73.3-12-2-24.5-4.1-34.5-11.1s-16.4-20.6-11.5-31.7c7.4-16.8,32.2-15.4,48.7-7.3,22.2,10.9,40.4,28.3,61.5,41s47.9,20.7,70.3,10.4c16.9-7.7,27.9-24.1,38-39.6,26.4-40.7,54-88.6,39.4-134.9-11.7-37.6-47.6-61.3-74.8-89.8s-46.1-75.9-20-105.5c14.2-16,39.2-23.3,45.6-43.7,9.4-30.4-30.4-53.6-37.2-84.7-4.5-20.5,7-42.1,24-54.2s38.6-16.3,59.6-16.9a207.3,207.3,0,0,1,115.2,31.5c27,17.1,50,40.4,77.9,55.9s64.5,22.2,91.1,4.5c10.1-6.8,17.9-16.4,27.5-23.9s24-13.9,35.8-21.1c43.7-26.6,69-75,87.4-122.7,12.3-32.2,22.8-65.5,37.5-96.5"/>
<path class="cls-2" d="M1736.8,1105.3c-.8-1.6-1.6-3.2-2.3-4.8"/>
</svg>
